<svg width="90" height="90" viewBox="0 0 90 90" fill="none" xmlns="http://www.w3.org/2000/svg">
<rect width="90" height="90" rx="45" fill="#89162D"/>
<path d="M64.7886 36.3426V58.6047C64.7886 60.6531 63.1266 62.3151 61.0782 62.3151H28.9218C26.8734 62.3151 25.2114 60.6531 25.2114 58.6047V36.3426C25.2114 34.2941 26.8734 32.6322 28.9218 32.6322H35.7241L36.6749 30.0891C37.216 28.6436 38.5996 27.6851 40.1456 27.6851H49.8467C51.3926 27.6851 52.7763 28.6436 53.3174 30.0891L54.2759 32.6322H61.0782C63.1266 32.6322 64.7886 34.2941 64.7886 36.3426ZM54.2759 47.4736C54.2759 42.3564 50.1172 38.1977 45 38.1977C39.8828 38.1977 35.7241 42.3564 35.7241 47.4736C35.7241 52.5908 39.8828 56.7495 45 56.7495C50.1172 56.7495 54.2759 52.5908 54.2759 47.4736ZM51.8023 47.4736C51.8023 51.2226 48.749 54.276 45 54.276C41.251 54.276 38.1977 51.2226 38.1977 47.4736C38.1977 43.7246 41.251 40.6713 45 40.6713C48.749 40.6713 51.8023 43.7246 51.8023 47.4736Z" fill="white"/>
</svg>
