<svg width="90" height="90" viewBox="0 0 90 90" fill="none" xmlns="http://www.w3.org/2000/svg">
<rect width="90" height="90" rx="45" fill="#89162D"/>
<path d="M37.4266 36.3426C37.4266 34.3473 38.5223 32.6225 40.132 31.6824V45.0001H43.3786V30.9316H46.6251V45.0001H49.8717V31.6824C51.4815 32.6225 52.5772 34.3473 52.5772 36.3426V45.0001H55.8237V36.3426C55.8237 31.5606 51.9482 27.6851 47.1662 27.6851H42.8375C38.0556 27.6851 34.18 31.5606 34.18 36.3426V45.0001H37.4266V36.3426ZM60.0375 50.8101L59.3138 48.6457C59.0162 47.7596 58.191 47.1644 57.2576 47.1644H32.7393C31.8059 47.1644 30.9808 47.7596 30.6832 48.6457L29.9595 50.8101C29.4995 52.2101 30.5411 53.6576 32.0156 53.6576V61.2329C32.0156 61.8281 32.5026 62.3151 33.0978 62.3151H35.2622C35.8574 62.3151 36.3444 61.8281 36.3444 61.2329V53.6576H53.6594V61.2329C53.6594 61.8281 54.1464 62.3151 54.7416 62.3151H56.9059C57.5011 62.3151 57.9881 61.8281 57.9881 61.2329V53.6576C59.4626 53.6576 60.5042 52.2101 60.0375 50.8101Z" fill="white"/>
</svg>
