<svg width="90" height="90" viewBox="0 0 90 90" fill="none" xmlns="http://www.w3.org/2000/svg">
<rect width="90" height="90" rx="45" fill="#89162D"/>
<path d="M38.9819 48.6078C36.2683 48.7823 33.8057 49.8158 32.4083 53.4979C32.2494 53.918 31.8672 54.173 31.4215 54.173C30.6701 54.173 28.3467 52.3014 27.6846 51.8496C27.6852 57.4195 30.2507 62.3151 36.3427 62.3151C41.4737 62.3151 45.0002 59.3546 45.0002 54.1858C45.0002 53.9755 44.9563 53.7746 44.9346 53.5683L38.9819 48.6078ZM58.6554 27.6851C57.6301 27.6851 56.6689 28.1389 55.9358 28.7977C42.1101 41.1481 40.6715 41.4383 40.6715 45.0738C40.6715 46.0004 40.8913 46.8837 41.262 47.6913L45.5785 51.2882C46.0662 51.41 46.5687 51.4932 47.0929 51.4932C51.2938 51.4932 53.7288 48.4177 61.3751 34.1471C61.8743 33.1765 62.3152 32.1281 62.3152 31.0365C62.3152 29.0811 60.5567 27.6851 58.6554 27.6851Z" fill="white"/>
</svg>
