<svg width="90" height="90" viewBox="0 0 90 90" fill="none" xmlns="http://www.w3.org/2000/svg">
<rect width="90" height="90" rx="45" fill="#89162D"/>
<path d="M60.1506 52.0343V29.3083C60.1506 28.4088 59.4269 27.6851 58.5273 27.6851H36.3425C32.7577 27.6851 29.8494 30.5934 29.8494 34.1782V55.8219C29.8494 59.4067 32.7577 62.3151 36.3425 62.3151H58.5273C59.4269 62.3151 60.1506 61.5913 60.1506 60.6918V59.6096C60.1506 59.1023 59.9139 58.6424 59.5486 58.3448C59.2646 57.3032 59.2646 54.3339 59.5486 53.2923C59.9139 53.0015 60.1506 52.5416 60.1506 52.0343ZM38.5069 36.7484C38.5069 36.5252 38.6895 36.3426 38.9127 36.3426H53.2517C53.4749 36.3426 53.6575 36.5252 53.6575 36.7484V38.1011C53.6575 38.3243 53.4749 38.5069 53.2517 38.5069H38.9127C38.6895 38.5069 38.5069 38.3243 38.5069 38.1011V36.7484ZM38.5069 41.0771C38.5069 40.8539 38.6895 40.6713 38.9127 40.6713H53.2517C53.4749 40.6713 53.6575 40.8539 53.6575 41.0771V42.4299C53.6575 42.6531 53.4749 42.8357 53.2517 42.8357H38.9127C38.6895 42.8357 38.5069 42.6531 38.5069 42.4299V41.0771ZM55.646 57.9863H36.3425C35.1453 57.9863 34.1781 57.0191 34.1781 55.8219C34.1781 54.6315 35.1521 53.6576 36.3425 53.6576H55.646C55.5175 54.8141 55.5175 56.8297 55.646 57.9863Z" fill="white"/>
</svg>
