<svg width="90" height="90" viewBox="0 0 90 90" fill="none" xmlns="http://www.w3.org/2000/svg">
<rect width="90" height="90" rx="45" fill="#89162D"/>
<path d="M28.685 58.9843C28.685 60.2735 29.7265 61.3151 31.0157 61.3151H58.9842C60.2734 61.3151 61.315 60.2735 61.315 58.9843V38.0079H28.685V58.9843ZM40.3385 43.5434C40.3385 43.0627 40.7318 42.6693 41.2126 42.6693H48.7874C49.2681 42.6693 49.6614 43.0627 49.6614 43.5434V44.126C49.6614 44.6068 49.2681 45.0001 48.7874 45.0001H41.2126C40.7318 45.0001 40.3385 44.6068 40.3385 44.126V43.5434ZM61.315 28.6851H28.685C27.3958 28.6851 26.3542 29.7266 26.3542 31.0158V34.5118C26.3542 35.1528 26.8787 35.6772 27.5196 35.6772H62.4803C63.1213 35.6772 63.6457 35.1528 63.6457 34.5118V31.0158C63.6457 29.7266 62.6041 28.6851 61.315 28.6851Z" fill="white"/>
</svg>
